<?xml version="1.0" encoding="UTF-8"?>
<svg id="Layer_1" data-name="Layer 1" xmlns="http://www.w3.org/2000/svg" viewBox="0 0 262 105">
  <defs>
    <style>
      .cls-1 {
        fill: none;
        stroke: #fff;
        stroke-miterlimit: 10;
      }
    </style>
  </defs>
  <path class="cls-1" d="m160.87,35.46c-.18,1.6-.38,3.21-.52,4.82-.16,1.76-.31,3.53-.37,5.29-.06,1.78,0,3.56.02,5.34,1,1.07,2.01,2.13,3.15,3.34.86-.11,1.84-.23,2.74-.34,2.93,4.47,2.99,4.5,7.96,3.27.43-.1.89-.22,1.24-.46.86-.58,1.67-1.23,2.32-1.72.08-1.4.08-2.57.24-3.72.35-2.55.45-5.06-.16-7.6-.42-1.74-.47-3.57-.91-5.3-.44-1.75-7.66-7.63-6.28-8.52,1.11-.72,12.7-.9,14.35-1.04.13,1.2,1.91,6.26,2.05,7.25.18,1.32-4.06,2.86-3.66,4.11.5,1.56,4.26,1.55,4.68,3.13.37,1.41,2.98,1.72,3.08,3.11,1.42.82-2.83,4.25-1.54,4.92.51.26,1.13.42,1.7.43,2.82.04,5.65.02,8.29.02,2.91-2.88,5.41-5.66,4.65-9.96-.56.61-1.12,1.21-1.68,1.82-.83.18-1.66.37-2.26.5-.49,1.78-.81,3.24-1.3,4.64-.34.97-1.28,1.36-2.19,1.13-.99-.25-1.97-.69-2.82-1.25-.99-.65-1.73-1.73-2.77-2.24-2.76-1.37-3.6-3.81-3.99-6.58-.35-2.54-.82-5.05-1.95-7.36-.56-1.15-.67-2.2-.28-3.46.57-1.85,1.04-3.77,1.26-5.7.32-2.8-.8-4.24-3.5-4.88-.72-.17-1.48-.15-2.23-.16-1.64-.02-3.29,0-4.93,0,0,.59-.02,1.19-.02,1.78,1.79,0,3.58-.06,5.36.04,1.84.11,2.59.96,2.71,2.9.11,1.81.18,3.62-.93,5.22-.01,1.18-.57,1.8-1.77,1.79-1.19,0-2.38-.01-3.57-.02-2.63.27-4.61-1.53-6.91-2.31,0,.54-.03,1.07-.03,1.61,0,.43,0,.86,0,1.29"/>
  <path class="cls-1" d="m143.84,25.56c-.73,3.24-.78,6.44.48,9.27,2.34,1.12,4.45,2.14,6.3,3.03.48,1.64.85,2.94,1.24,4.24.13.43.19.95.47,1.25.38.4.95.61,1.43.91.27-.49.55-.99.82-1.48,2.82.35,3.22-2.07,4.33-3.49-.62-1.69-1.14-3.09-1.65-4.49,1.22.02,2.43.03,3.65.05,0,.21-.02.42-.03.63-.18,1.61-.38,3.21-.52,4.82-.16,1.76-.31,3.53-.37,5.29-.06,1.78,0,3.56.02,5.34-1.15-.03-2.19.11-2.99,1.16-.29.38-.97.47-1.47.69-.05-1.33-.04-2.67-.19-3.99-.05-.39-1-3.86-1.46-4.41-1.18,2.7-1.31,8.18-.3,10.7.15.38.02.88.02,1.32-.55,0-1.11-.02-1.66-.03-1.47.13-2.94.25-4.42.38-.43.04-1.14.25-1.25.08-1.26-2.01-3.26-.59-4.91-.92-.41-1.45-.78-2.73-1.13-4.02-.35-1.28-.56-2.63-1.07-3.84-.61-1.45-.92-2.83-.32-4.34.46-1.16.56-2.35.02-3.5-.78-1.68-.28-3.16.44-4.72,1.47-3.18,1.42-6.27.22-9.73"/>
  <path class="cls-1" d="m130.35,72.68c.03-1.5.06-3.01.09-4.51.97-.53,1.79-1.24,1.35-2.45-.93-2.61-.42-5.3-.57-7.95-.08-1.48.25-3.06-.14-4.44-.58-2.03-.51-4.03-.54-6.06-.03-.6-.07-1.19-.1-1.79.05-.56.11-1.11.16-1.67.51-.04,1.03-.09,1.54-.13.13,1.32-.15,2.93.5,3.91,1.12,1.69,1.23,3.23.76,5.06-.22.83-.17,1.76-.12,2.63.1,1.78.23,3.56.46,5.33.22,1.77.56,3.52.89,5.27.25,1.31,1.11,2.03,2.36,2.38,3.41.96,6.87,1.66,10.42,1.79,1.19.82,1.3.78,1.91-.79,1.77-.01,3.53-.03,5.3-.04.61.79,1.41.78,2.25.5.79-.27,1.56-.56,2.35-.84,2.37.12,4.69.16,7.09-.19,2.28-.34,4.7.32,7.06.54,1.48.14,3.03.04,4.41.48,2.25.72,3.69-.14,4.98-1.82.15-.19.54-.2.11-.05,2.9.19,5.09.33,7.29.47,1.04.07,2.07.13,3.11.19,0,.68,0,1.36,0,2.04-2.92.42-5.85.86-8.78,1.24-2.2.29-2.2.25-3.78,2.17-1.52-.18-2.98-.34-4.44-.51-1.55-1.52-3.45-1.82-5.5-1.62-1.79,0-3.58.01-5.37.02-1.19-.04-1.83.5-1.83,1.73-2.95-1.61-6.12-1.99-9.41-1.77-.15.01-.3.01-.44.01-1.93-.02-3.86-.26-5.73.53-.51.21-1.19.23-1.74.1-4.18-.98-8.51-1.29-12.54-2.93-.35-.14-.81.03-1.13.05-1.2,1.9,1.22,2.66.99,4.43-1.64.68-1.23,1.94-.48,3.25-.01,1.81-.16,3.64,0,5.43.24,2.91-.56,5.34-2.74,7.27.09-2.37.04-4.71.65-7.07.43-1.65.07-3.54-.06-5.31-.11-1.63-.38-3.24-.58-4.86Z"/>
  <path class="cls-1" d="m23.18,58.71c-.09-1.03-.17-2.05-.26-3.08,2.39-.93,2.1-2.93,1.88-4.89-.02-.21-.29-.4-.62-.82-.19.72-.3,1.28-.49,1.8-.24.65-.55,1.27-.79,1.83-1.81.22-3.15-.17-4.54-1.39.35-1.04.59-2.21,1.12-3.22,1.38-2.62,2.89-5.16,4.35-7.74l-.04.04c.85-.35,1.31-.89.92-1.86l-.03.04c.54-.11,1.2-.05,1.61-.35,1.31-.95,2.57-2,3.79-3.08,1.16-1.03,2.48-1.57,3.95-1.76,1.92,1.22,2.49,3.04,2.13,5.08-.44,2.49-.81,5.07-1.73,7.4-2.15,5.45-5.69,9.73-11.25,11.98Z"/>
  <path class="cls-1" d="m23.18,58.71c5.57-2.26,9.1-6.54,11.25-11.98.92-2.33,1.29-4.9,1.73-7.4.36-2.05-.21-3.86-2.13-5.08-1.48.19-2.8.73-3.95,1.76-1.22,1.08-2.47,2.13-3.79,3.08-.41.3-1.06.24-1.61.35.79-1.02,1.46-2.16,2.38-3.02,1.28-1.18,2.75-2.14,4.14-3.2,1.62,0,3.23,0,4.85,0,1.39,2.16,2.17,4.48,1.97,7.09-.62,2.69-1.24,5.39-1.86,8.08-1.59,1.09-1.72,3.06-2.69,4.53-.85.9-1.7,1.79-2.54,2.69-3.06,2.32-6.11,4.64-9.69,7.35,4.35-.51,8.15-.74,11.54-2.8,2.09-.87,4.19-1.74,6.28-2.61,2.2-.69,4.42-1.32,6.28-2.78,1.89-.84,3.97-1.41,5.64-2.57,2.93-2.03,6.33-3.35,8.88-5.97.38-.39,1.07-.49,1.62-.72,0,0,.4.04.4.04l.39-.07c-.1.99-.2,1.98-.3,2.97-1.93.4-3.56,1.37-4.96,2.75-2.72,1.45-5.44,2.89-8.16,4.34-.58.35-1.16.69-1.74,1.03-1.21.57-2.43,1.14-3.64,1.7-.61.28-1.21.56-1.82.83-5.35,1.88-10.71,3.77-16.06,5.65-.6.04-1.2.07-1.8.11-4.01.75-8.05.71-12.07.74q-.27-1.79,1.32-2.52c.64-.23,1.27-.45,1.91-.68,1.15-.43,2.31-.86,3.46-1.28,1.9-.16,3.55-.77,4.61-2.51l.15.1Z"/>
  <path class="cls-1" d="m243.53,66.32c3.01.83,4.29,2.38,5.23,5.31.85,2.65,1.36,5.74,4.51,6.46-.03-.32-.09-.62-.17-.93.07.31.12.62.17.93-8.34-1.9-.85,12.92-5.28,15.79-.17-.4-.33-.8-.48-1.2"/>
  <path class="cls-1" d="m246,64.36c-.03-.18-.03-.36-.02-.54-.04-.91-.08-1.83-.12-2.74-1.5-.28-1.74-1.69-2.41-2.72-.24-.08-.49-.12-.74-.11-.13,1.17-.56,2-1.95,1.74-3.71,1.47-7.46,1.96-11.5.14-.6,1.05-.96,2.25-1.76,2.92-.73.6-1.93.63-2.93.9-1.3,1.82-3.29,1.47-5.11,1.67-2.49.35-4.97.7-6.93.98-2.45-1.14-3.59-3.5-6.24-3.39.59,1.66,2.76,1.76,2.58,3.94-3.71.1-7.22,2.05-11.18,1.24-1.42-.29-2.97.05-4.45.1,0,.68,0,1.36,0,2.04.91.07,1.82.15,2.72.22.53,0,1.06,0,1.59,0,3.78-.52,7.56-1.09,11.35-1.54,1.3-.15,2.64,0,3.97.02.67-.31,1.31-.79,2.01-.89,5.12-.74,10.13-1.93,15.09-3.39,1.4-.41,2.92-.92,4.24.2.48-.23,1.02-.4,1.63-.46.43-.26.93-.45,1.48-.57.32-.67.81-1.18,1.66-1.37,1.13-.61,2.26-1.22,3.56-1.92,1.48,1.17,1.74,2.83,1.91,4.53.54.02,1.07.05,1.61.07-.03-.36-.05-.71-.08-1.07Z"/>
  <path class="cls-1" d="m139.33,35.47c-.72,1.56-1.22,3.05-.44,4.72.54,1.16.44,2.34-.02,3.5-.6,1.51-.28,2.89.32,4.34.51,1.22.71,2.56,1.07,3.84.35,1.29.72,2.57,1.13,4.02,1.65.33,3.65-1.09,4.91.92.11.17.82-.05,1.25-.08,1.47-.13,2.94-.25,4.41-.38-1.79.93-3.54,1.94-5.38,2.76-.77.34-1.72.46-2.56.39-1.17-.1-2.3-.56-3.47-.73-1.22-.18-2.46-.21-3.83-.31.27-3.25.18-6.18-.65-9.1-.31-1.09-.26-2.43.07-3.53.8-2.68.52-5.36.4-8.05-.01-.34-.45-.67-.81-1.16-1.64,1.43-2.26,3.19-2.71,5.08-.16.68-.57,1.31-.87,1.96-.51.04-1.03.09-1.54.13-.07-1.25-.13-2.49-.19-3.74,1.18-.08,1.74-.73,1.71-1.92.29-.86.59-1.72.88-2.59,1.1-.09,2.24-.38,2.5-1.54.4-1.75,1.56-2.84,2.93-3.93v-4.56c.37,0,.73,0,1.1-.01"/>
  <path class="cls-1" d="m145.65,97.06c-.61-.29-1.21-.58-1.82-.88-.01-.27-.02-.54-.02-.82,2.65.38,5.3.75,7.95,1.13.53.26,1.03.58,1.58.77,3.38,1.16,6.9,1.54,10.41,2.12,6.13,1.01,12.13,2.87,18.45,2.5.29-.02.6.02.88.11,2.9.89,5.89.6,8.85.63,3.71.04,7.42-.02,11.13-.04.3.57.59,1.13.89,1.7-3.54.08-7.09.23-10.63.23-4.13,0-8.27-.08-12.39-.25-2.2-.09-4.39-.45-6.59-.69-2.7-.59-5.4-1.18-8.09-1.77-5.34-1.06-10.67-2.12-16.01-3.18-1.39-.92-2.9-1.5-4.58-1.56Z"/>
  <path class="cls-1" d="m61.98,48.46c.1-.99.2-1.98.3-2.97.61-1.12,1.22-2.23,1.83-3.35.35-.86.71-1.71,1.06-2.57,1.44-.17,2.19-1.39,3.26-2.13,1.14-.79,1.64-2.57,3.46-2.32.87,1.96-.88,2.86-1.71,4.07-.82,1.21-1.95,2.19-2.87,3.34-.82,1.02-1.54,2.13-2.3,3.2-1.15,1.64-1.5,3.5-1.44,5.47,0,2.8-.03,5.61.05,8.41.01.53.47,1.05.72,1.57-.13,2.29.58,4.38,1.49,6.42.18,1.27.75,2.3,1.81,3.03.23.23.46.46.68.69,1.43,1.96,3.29,2.97,5.75,2.61,1.45.23,2.89.46,4.34.67.83.12,1.66.19,2.49.55-2.67.76-5.33,1.58-8.09.79-1.38-.39-2.79-.23-4.19-1.09-3.21-1.98-4.24-5.19-5.33-8.39-.57-1.68-.72-3.51-1.06-5.27-.16-.64-.33-1.27-.49-1.91-.06-.88-.13-1.76-.19-2.63.14-2.73.28-5.46.43-8.18Z"/>
  <path class="cls-1" d="m203.9,41.84c-.56.61-1.12,1.21-1.68,1.82-.13-1.92-.07-3.79-1.53-5.46-.79-.91-1.04-2.5-1.09-3.81-.08-2.07-1.04-3.39-2.71-4.3-2.2-1.2-3.38-3.3-4.74-5.25-1.04-1.5-.81-3.17-.53-4.77.12-.66.69-1.39,1.26-1.77,1.89-1.23,3.97-2.17,6.28-1.7,2.17.44,4.29,1.13,6.42,1.76,1.29.38,1.94,1.3,1.93,2.68-.28,0-.56-.02-.83-.03-1.56-1.18-3.27-2.1-5.16-2.49-3.26-.68-6.08.17-8.26,2.58.32,3.23,2.39,4.57,4.77,5.64.73-.38,1.3-1.31,2.31-.41.53.47,1.25.73,1.89,1.09-.02.88-.04,1.77-.06,2.65-.2.82-.79,1.81-.53,2.44,1.21,3.01,1.42,6.24,2.27,9.32Z"/>
  <path class="cls-1" d="m240.75,32.81c1.33.02,2.28.67,2.72,1.9,1.16,3.2,2.35,6.4,3.33,9.66.47,1.56-.39,2.86-1.6,3.87-1.16.32-2.33.65-3.49.97-.19-1-.31-2.01-.59-2.98-.68-2.37-1.43-4.73-2.16-7.09-.9-3.32-1.79-6.64-2.69-9.96,0-.9,0-1.81,0-2.71.02-.31.04-.62.06-.93,1.97.41,2.59,1.76,2.18,3.56-.24,1.04-.64,1.97.38,2.78.08,1.43.13,2.86,1.7,3.99.06-1.14.11-2.1.16-3.06Zm.47,5.15q-.37,2.43,1.69,4.58c.18-.84.49-1.5.42-2.11-.14-1.24-.83-2.15-2.12-2.48Z"/>
  <path class="cls-1" d="m218.32,43.66c2.13-.03,4.33.4,6.26-.94.31.02.62.04.93.07-.09.72-.18,1.45-.26,2.07-3.88,1.58-3.89,1.64-5.7,1.18-2.85-.74-5.7-1.4-8.84-.66-.49-2.11-.99-3.98-1.34-5.88-.66-3.53-1.25-7.08-1.86-10.63.38-.2.76-.4,1.14-.6.75,1.37,1.45,2.76,2.26,4.09.94,1.55,1.27,3.2,1.14,4.98-.65.57-1.36,1.13-.34,1.99,1.21-1.14,1.64.71,2.58.69,1.03-.02,2.05.07,3.08.11.02.88.04,1.76.06,2.64.3.3.6.59.9.89Z"/>
  <path class="cls-1" d="m203.95,104.29c-.3-.57-.59-1.13-.89-1.7,5.35-.24,10.68-.68,15.98-1.56,1.99-.33,4-1.26,6.13-.41.47.19,1.17-.09,1.74-.26,5.26-1.53,10.65-2.67,15.64-5.04.81.01,1.48-.21,1.81-1.04l3.66-.41c-.03.49-.05.97-.08,1.46l-.89.81c-1.96.23-3.71,1.02-5.39,2.03-.73.08-1.57-.04-2.18.28-5.51,2.87-11.45,3.95-17.55,4.38-2.1.29-4.2.57-6.3.86-3.89.2-7.78.39-11.67.59Z"/>
  <path class="cls-1" d="m139.53,25.53c-.37,0-.73,0-1.1.01-2.14-2.07-4.57-2.41-7.34-1.44-3.01,1.05-4.56,3.07-4.74,6.27-.05.87-.34,1.72-.5,2.5q3.32,2.8,7.15,2.7c-.29.86-.59,1.72-.88,2.59-.63.13-1.26.27-1.9.4-.92-.11-1.87-.34-2.57.58-.53-.34-1.06-.68-1.59-1.01-.95-.91-1.89-1.82-2.84-2.72-.04-.86-.09-1.73-.13-2.59.65-2.1,1.3-4.21,1.95-6.31.33-.65.59-1.35,1.02-1.93.42-.56.96-1.31,1.55-1.42,2.59-.51,5.09-1.73,7.81-1.31.98.15,1.97.52,2.86.97,1.06.53,1.06,1.7,1.25,2.73Z"/>
  <path class="cls-1" d="m223.67,25.58c-.71-.54-1.34-1.3-2.13-1.57-1.59-.54-2.13-1.96-2.99-3.12-1.03-1.99-1.43-4.09-1.19-6.32.36.04.72.07,1.09.11-.12,1.39.16,2.53,1.12,3.72,3.4,4.24,7.75,5.07,12.51,4.35,2.17-2.9,4.9-5.13,4.14-8.97l.09-.11c.56.05,1.12.1,1.68.14-.02,1.78-.04,3.55-.05,5.33-1.49,1.51-1.74,3.42-1.71,5.42-.6-.22-1.21-.44-1.81-.66-2.48,1.35-5.08,2.17-7.95,1.71-.93,0-1.86,0-2.78-.01Z"/>
  <path class="cls-1" d="m154.58,42.77c-.27.49-.55.99-.82,1.48-.49-.29-1.05-.51-1.43-.91-.28-.29-.34-.82-.47-1.25-.39-1.3-.76-2.6-1.24-4.24-1.86-.89-3.97-1.91-6.3-3.03-1.26-2.82-1.21-6.02-.48-9.27,1.34-2.05,3.07-3.64,5.37-4.54,1.05.65.87,1.71.88,2.71-.94.36-2.01.55-2.8,1.12-1.65,1.2-2.29,3.84-1.08,5.06,1.17,1.18,2.04,2.35,2.47,3.98.25.95,1.38,1.04,2.5.47.51-.26,1.04-.48,1.56-.71.03.35.05.71.08,1.06-.14,2.09.02,4.1,1.13,5.98.36.61.44,1.39.65,2.09Z"/>
  <path class="cls-1" d="m130.35,72.68c.2,1.62.47,3.23.58,4.86.12,1.77.49,3.66.06,5.31-.61,2.37-.56,4.71-.65,7.07,0,0,.03-.06.03-.06-.36.1-.73.21-1.09.31.37.22.73.43,1.1.65,0,0-.04-.05-.04-.05.42.98,1.16,1.53,2.18,1.8.52.14.99.46,1.48.7-.31.31-.64.91-.93.89-2.05-.15-4.07-.44-5.97-1.76.54-4.17.88-8.33,1.68-12.4.33-1.69.46-3.15-.05-4.79-.43-1.35-.1-1.65,1.64-2.55Z"/>
  <path class="cls-1" d="m130.55,47.27c.03,2.03-.05,4.03.54,6.06.4,1.38.06,2.95.14,4.44.15,2.65-.36,5.34.57,7.95.43,1.22-.39,1.92-1.35,2.45-.94-.15-1.71-.5-1.81-1.61-.03-.3,0-.61-.07-.89-.67-2.67,1.07-5.14.41-7.94-.6-2.56-.29-5.35-.4-8.03-.06-1.41.5-2.3,1.98-2.43Z"/>
  <path class="cls-1" d="m23.83,41.22c-1.46,2.57-2.97,5.12-4.35,7.74-.53,1.01-.77,2.17-1.12,3.22,1.4,1.22,2.74,1.61,4.54,1.39.24-.55.55-1.18.79-1.83.19-.53.3-1.09.49-1.8.32.42.59.6.62.82.22,1.95.51,3.95-1.88,4.89-1.36-.03-2.72-.05-4.08-.08-2.21-1.83-3.22-3.91-1.48-6.66.22-.34.13-.88.18-1.32,1.23-2.04,3.19-3.63,3.68-6.12.87-.08,1.75-.16,2.62-.24Z"/>
  <path class="cls-1" d="m164.92,30.74c-.04-.85-.03-1.7-.05-2.48-.02-1.15-.01-2.3-.02-3.45-.59-.66-.95-1.57-1.09-2.43-.12-.74-.14-1.51-.07-2.27-.34,0-.68,0-1.02,0l-.11.11c.18.56.3,1.16.56,1.68.76,1.48,1.25,2.86.63,4.65-.46,1.34-.2,2.95-.26,4.43.47-.08.94-.15,1.42-.23Z"/>
  <path class="cls-1" d="m218.45,14.68c-.36-.04-.72-.07-1.09-.11.13-.96.68-1.56,1.52-2.01.76-.41,1.45-.96,2.17-1.44,1.79-.02,3.58-.04,5.36-.07,1.5,0,2.99-.02,4.49-.03,1.01.03,2.02-.01,3.02.1,1.47.16,2.38.94,2.39,2.54,0,0-.09.11-.09.11-2.09-.83-4.28-.93-6.5-.97-3.88-.07-7.56.96-11.26,1.88Z"/>
  <path class="cls-1" d="m221.04,11.13c-.72.49-1.41,1.03-2.17,1.44-.84.45-1.39,1.04-1.52,2.01-.24,2.23.15,4.34,1.19,6.32-2.05.38-3.38-.42-4.15-2.39-.75-1.93-.98-3.75.56-5.38.81-.86,1.6-1.8,2.57-2.43,1.17-.77,2.49-.98,3.51.43Z"/>
  <path class="cls-1" d="m253.27,78.09c-.03-.61-.11-1.13-.89-1.25-1.28-.18-2.56-.44-4.01-.69-.37-2.18-.72-4.21-1.06-6.24.72.14,1.64.05,2.11.47,1.85,1.69,3.62,3.48,5.3,5.34.78.87.24,1.67-1.44,2.36Z"/>
  <path class="cls-1" d="m32.79,60.17c-3.39,2.05-7.19,2.29-11.54,2.8,3.58-2.71,6.63-5.03,9.69-7.35.04,1.15.08,2.25,1.15,3.07.39.3.48.98.71,1.49Z"/>
  <path class="cls-1" d="m223.67,25.58c.93,0,1.86,0,2.78.01-.14,2.86.65,5.52,1.74,8.11-.27,1.82-.54,3.64-.8,5.45-.33.6-.66,1.21-.99,1.81-.02-.92-.03-1.83-.05-2.75.06-2.28-.89-4.29-1.71-6.33.88-.61.87-1.22,0-1.83-.32-1.49-.65-2.99-.97-4.48Z"/>
  <path class="cls-1" d="m23.83,41.22c-.87.08-1.75.16-2.62.24,0-1.03,0-2.06,0-3.02,2.33-2.27,5.78-2.89,6.9-6.39,1.21.46,2.15.81,3.09,1.17-1.39,1.06-2.86,2.02-4.13,3.2-.93.86-1.6,2-2.38,3.02,0,0,.03-.04.03-.04-.91.32-1.15.97-.92,1.86l.04-.04Z"/>
  <path class="cls-1" d="m208.65,28.26c-.38.2-.76.4-1.14.6-1.78.41-3.56.81-5.34,1.22.02-.88.04-1.77.05-2.65,1.39-.45,2.78-.89,4.41-1.41.02-1.73.03-3.37.05-5,.28.02.56.03.83.03,1.65,2.2,1.92,4.62,1.14,7.21Z"/>
  <path class="cls-1" d="m133.98,93.3c-.49-.24-.96-.56-1.48-.7-1.01-.28-1.76-.82-2.18-1.8,2.14-.06,4.19,1.53,5.97.45,1.94,1.09,3.58,2.02,5.23,2.94.75.42,1.53.79,2.29,1.18,0,.27,0,.54.02.82-1.47.1-2.77-.17-4.15-.89-1.77-.92-3.79-1.35-5.7-1.99Z"/>
  <path class="cls-1" d="m64.34,61.18c-.25-.52-.7-1.04-.72-1.57-.08-2.8-.04-5.61-.05-8.41,1.21.16,1.91,1.09,2,2.08.21,2.32.19,4.67.12,7-.01.32-.88.6-1.35.9Z"/>
  <path class="cls-1" d="m61.98,48.46c-.14,2.73-.28,5.46-.43,8.18-.99-.1-1.74-.49-1.79-1.61-.09-1.88-1.21-3-2.74-3.82,1.4-1.38,3.02-2.35,4.96-2.75Z"/>
  <path class="cls-1" d="m166.25,101.8c2.7.59,5.4,1.18,8.09,1.77-.16.41-.2,1.01-.49,1.18-1.61.93-3.4.75-5.04.28-1.45-.41-2.4-1.59-2.55-3.24Z"/>
  <path class="cls-1" d="m17.53,47.58c-.05.45.04.98-.18,1.32-1.74,2.75-.73,4.83,1.48,6.66-1.13-.02-2.27-.04-3.48-.06-.77-1.95-.53-3.73-.44-5.48.08-1.6,1.11-2.32,2.62-2.44Z"/>
  <path class="cls-1" d="m127.66,39.13c.7-.92,1.65-.69,2.57-.58.06.5.12,1.01.18,1.52.06,1.25.13,2.49.19,3.74-.05.56-.11,1.11-.16,1.67-.76-.08-1.47-.25-1.78-1.09-.62-1.69-1.22-3.39-1.01-5.25Z"/>
  <path class="cls-1" d="m38.03,40.32c.2-2.61-.58-4.93-1.97-7.09,3.43.17,3.81.48,3.9,3.34.02.74,0,1.49-.07,2.23-.1,1.11-.91,1.41-1.85,1.52Z"/>
  <path class="cls-1" d="m150.08,23.72c0-.99.18-2.05-.87-2.71q.89-2.62,3.19-2.05c.42.1.86.16,1.29.23.01.3.02.6.03.9-.29.46-.8.91-.82,1.39-.09,1.9-1.18,2.38-2.8,2.23Z"/>
  <path class="cls-1" d="m125.05,26.49c-.65,2.1-1.3,4.21-1.95,6.31-.75-.14-1.56-.37-1.59-1.26-.03-1.01-.06-2.15.35-3.02.57-1.24,1.66-2.09,3.18-2.03Z"/>
  <path class="cls-1" d="m45.36,54.79c-1.86,1.46-4.09,2.09-6.28,2.78-.03-1.23.05-2.39,1.42-2.97.95-.4,1.82-1.01,2.79-1.33,1.27-.42,1.94.24,2.08,1.52Z"/>
  <path class="cls-1" d="m241.71,49.2c1.16-.32,2.33-.65,3.49-.97.02,1.81.04,3.62.06,5.42-.58-.04-1.16-.09-1.74-.13-.82-1.35-2.13-2.49-1.81-4.32Z"/>
  <path class="cls-1" d="m241.66,98.19c1.67-1.01,3.43-1.8,5.39-2.03.3.62.6,1.25.9,1.87-1.71,1.35-3.79,1.16-5.77,1.29-.15.01-.35-.74-.53-1.13Z"/>
  <path class="cls-1" d="m217.37,40.12c-1.03-.04-2.05-.13-3.08-.11-.94.02-1.37-1.83-2.58-.69-1.02-.86-.32-1.42.34-1.99,1.41,0,2.8-.06,4.09.74.8.5,1.24,1.11,1.23,2.05Z"/>
  <path class="cls-1" d="m237.92,19.13c.02-1.78.04-3.55.05-5.33,2.3.77,2.74,1.21,2.73,2.7,0,1.49-.47,1.93-2.79,2.62Z"/>
  <path class="cls-1" d="m245.87,61.07c-1.5-.28-1.74-1.69-2.41-2.72,0-.96.01-1.91.02-2.86.87.03,1.74.06,2.6.1-.07,1.83-.14,3.66-.21,5.49Z"/>
  <path class="cls-1" d="m215.62,103.7c2.1-.29,4.2-.58,6.3-.86-1.72,2.44-3.45,3.08-5.76,2.01-.29-.14-.37-.75-.55-1.14Z"/>
  <path class="cls-1" d="m87.53,71.04c.52-2.19,2.2-2.55,4.03-2.47.41.02,1.05.64,1.12,1.06.06.39-.45.92-.81,1.3-.16.17-.55.12-.84.17-.33-.71-.59-.53-.82.07,0,0,.05-.04.05-.04-.91-.03-1.83-.07-2.74-.1Z"/>
  <path class="cls-1" d="m74.08,73.92c-2.46.36-4.32-.66-5.75-2.61,1.01-.04,2.02-.15,3.03-.12,1.73.04,2.63,1,2.73,2.74Z"/>
  <path class="cls-1" d="m153.7,20.1c0-.3-.02-.6-.03-.9.78-.31,1.54-.82,2.34-.88,1.59-.12,3.2,0,4.8.02.01.3.02.6.02.9-.59.3-1.19.6-1.78.9-1.78-.01-3.57-.02-5.35-.03Z"/>
  <path class="cls-1" d="m33.48,52.93c.97-1.46,1.1-3.44,2.69-4.53.91.49,1.22,1.29.86,2.2-.41,1.07-.81,2.26-2.26,2.35-.43.03-.87-.02-1.3-.03Z"/>
  <path class="cls-1" d="m145.65,97.06c1.68.07,3.19.64,4.58,1.56-2.45,2-3.58,1.61-4.58-1.56Z"/>
  <path class="cls-1" d="m23.03,58.61c-1.05,1.74-2.71,2.35-4.61,2.51.46-2.55.46-2.57,2.46-2.64.71-.02,1.43.08,2.15.13Z"/>
  <path class="cls-1" d="m175.26,18.31c0,.59-.02,1.19-.02,1.78-.69,1.66-2.06,1.93-3.62,1.8.31-.6.62-1.2.93-1.79.51-1.21,1.41-1.81,2.72-1.78Z"/>
  <path class="cls-1" d="m230.89,11.03c-1.5,0-2.99.02-4.49.03.1-1.25.78-1.79,2.01-1.81,1.29-.02,2.36.19,2.48,1.79Z"/>
  <path class="cls-1" d="m226.34,38.23c.02.92.03,1.83.05,2.75.01.27.02.53.02.8-.3.33-.61.67-.91,1,0,0,0,0,0,0-.31-.02-.62-.04-.93-.07.01-.84.04-1.69.04-2.53,0-1.18.57-1.82,1.72-1.96Z"/>
  <path class="cls-1" d="m86.76,73.08c-1.01.57-1.99,1.21-3.06,1.65-.34.14-.91-.28-1.75-.57,1.46-1.59,3.05-1.15,4.4-1.44.15.11.28.23.41.36Z"/>
  <path class="cls-1" d="m64.1,42.14c-.61,1.12-1.22,2.23-1.83,3.35,0,0-.39.07-.39.07,0,0-.4-.04-.4-.04,0-.29,0-.58.03-.87q.22-2.13,2.59-2.51Z"/>
  <path class="cls-1" d="m240.75,32.81c-.05.96-.1,1.92-.16,3.06-1.57-1.13-1.62-2.57-1.7-3.99.62.31,1.24.62,1.87.93Z"/>
  <path class="cls-1" d="m87.53,71.04c.91.03,1.83.07,2.74.1-.84,1.26-2.18,1.59-3.51,1.94-.13-.13-.26-.25-.41-.36.39-.56.78-1.12,1.18-1.68Z"/>
  <path class="cls-1" d="m246.08,55.59c-.87-.03-1.74-.06-2.6-.1.02-.66.03-1.31.05-1.97.58.04,1.16.09,1.74.13.76.44.88,1.15.81,1.94Z"/>
  <path class="cls-1" d="m123.23,35.4c.95.91,1.89,1.82,2.84,2.72q-2.65-.07-2.84-2.72Z"/>
  <path class="cls-1" d="m67.64,70.62c-1.06-.73-1.63-1.76-1.81-3.03q1.91.55,1.81,3.03Z"/>
  <path class="cls-1" d="m247.95,98.03c-.3-.62-.6-1.25-.9-1.87.3-.27.6-.54.89-.82,1.24,1.34,1.24,1.35.01,2.69Z"/>
  <path class="cls-1" d="m234.4,23.89c.6.22,1.21.44,1.81.66.04.32.08.65.12.98-.02.31-.04.62-.06.93-.3,0-.6,0-.9,0-1-.59-.86-1.63-.98-2.56Z"/>
  <path class="cls-1" d="m160.83,19.23c0-.3,0-.6-.02-.9,1.2-.04,1.8.57,1.86,1.76,0,0-.11.11-.11.11-.58-.33-1.16-.65-1.73-.98Z"/>
  <path class="cls-1" d="m224.64,30.07c.86.61.87,1.22,0,1.83-.95-.61-.94-1.22,0-1.83Z"/>
  <path class="cls-1" d="m47.12,56.58c.58-.34,1.16-.69,1.74-1.03-.3,2.01-.32,2.02-1.74,1.03Z"/>
  <path class="cls-1" d="m41.67,59.12c.61-.28,1.21-.55,1.82-.83-.17.53-.33,1.05-.5,1.58-.44-.25-.88-.5-1.32-.75Z"/>
  <path class="cls-1" d="m61.74,59.28c.16.64.33,1.27.49,1.91q-1.74-.68-.49-1.91Z"/>
  <path class="cls-1" d="m14.96,62.41c-.64.23-1.27.45-1.91.68.21-.51.41-1.03.62-1.54.43.29.86.57,1.29.86Z"/>
  <path class="cls-1" d="m23.81,64.87c.6-.04,1.2-.07,1.8-.11-.12.65-.08,1.55-1.04,1.4-.31-.05-.51-.84-.75-1.29Z"/>
  <path class="cls-1" d="m246,64.36c-.03-.18-.03-.36-.02-.54.13.14.26.28.39.42-.13.04-.25.08-.38.12Z"/>
  <path class="cls-1" d="m218.32,43.66c-.3-.3-.6-.59-.9-.89.3.3.6.59.9.89Z"/>
  <path class="cls-1" d="m90.22,71.18c.22-.6.48-.78.82-.07-.27.01-.55.04-.82.07Z"/>
  <path class="cls-1" d="m234.4,23.89c.12.94-.02,1.97.98,2.56,0,.91,0,1.81,0,2.72-.26,2.72.4,5.32,1.01,7.93.32,1.36,1.25,1.95,2.58,2.02.72,2.36,1.48,4.71,2.16,7.09.28.97.4,1.99.59,2.98-.32,1.84.99,2.98,1.81,4.32-.02.66-.03,1.31-.05,1.97,0,.95-.01,1.91-.02,2.86-.24-.08-.49-.12-.74-.1-1.23-.08-1.88.49-1.95,1.74-3.71,1.47-7.46,1.96-11.5.14-.6,1.05-.96,2.25-1.76,2.92-.73.6-1.93.63-2.92.9-.39-.43-.71-.97-1.18-1.26-2.26-1.4-4.56-2.72-6.9-4.1-1.61,1.1-1.84,1.48-1.04,2.55.6.8,1.39,1.53,2.23,2.07.95.6,1.62,1.29,1.78,2.42-2.49.35-4.97.7-6.93.98-2.45-1.14-3.59-3.5-6.24-3.39.59,1.66,2.76,1.76,2.58,3.94-3.71.1-7.22,2.05-11.18,1.24-1.42-.29-2.97.05-4.46.1-1.04-.06-2.07-.12-3.11-.19-2.19-.14-4.39-.28-7.29-.47.43-.14.04-.14-.11.05-1.29,1.68-2.74,2.54-4.98,1.82-1.38-.44-2.93-.34-4.41-.48-2.36-.22-4.78-.87-7.06-.54-2.4.35-4.72.31-7.09.2-.25-.54-.39-1.18-.78-1.59-1.16-1.22-2.39-1.14-3.35.23-.32.45-.31,1.13-.46,1.7-1.77.01-3.53.03-5.3.04-.81-.16-1.49,0-1.91.79-3.55-.13-7-.84-10.42-1.79-1.25-.35-2.12-1.07-2.36-2.38-.33-1.75-.66-3.5-.89-5.27-.22-1.77-.35-3.55-.46-5.33-.05-.88-.1-1.8.12-2.63.47-1.83.37-3.37-.76-5.06-.65-.97-.36-2.58-.5-3.91.3-.65.7-1.28.87-1.96.45-1.9,1.07-3.66,2.71-5.08.36.5.8.82.81,1.16.12,2.69.4,5.37-.4,8.05-.33,1.09-.38,2.44-.07,3.53.83,2.91.93,5.85.65,9.1,1.37.11,2.61.13,3.83.31,1.17.17,2.3.63,3.47.73.84.07,1.79-.05,2.56-.39,1.84-.82,3.59-1.83,5.38-2.76.55,0,1.11.02,1.66.03,1.2-.06,1.83-.67,1.85-1.9.01-.58.05-1.15.07-1.73.5-.22,1.18-.31,1.47-.69.8-1.05,1.83-1.19,2.99-1.16,1,1.07,2.01,2.13,3.15,3.34.86-.11,1.84-.23,2.74-.34,2.93,4.47,2.99,4.5,7.96,3.27.43-.11.89-.22,1.24-.46.86-.58,1.67-1.23,2.32-1.72.08-1.4.08-2.57.24-3.72.35-2.55.45-5.06-.16-7.6-.42-1.74-.47-3.57-.91-5.3-.44-1.75-7.66-7.63-6.28-8.52,1.11-.72,12.7-.9,14.35-1.04.13,1.2,1.91,6.26,2.05,7.25.18,1.33-4.06,2.86-3.66,4.11.5,1.56,1.49,2.98,1.91,4.56.37,1.41,5.75.3,5.85,1.68,1.42.82-2.83,4.25-1.54,4.92.51.26,1.13.42,1.7.43,2.82.04,5.65.02,8.29.02,2.91-2.88,5.41-5.66,4.65-9.96-.86-3.08-1.06-6.31-2.27-9.32-.26-.64.33-1.62.53-2.44,1.78-.41,3.56-.81,5.34-1.22.62,3.54,1.2,7.09,1.86,10.63.36,1.9.86,3.77,1.34,5.88,3.14-.74,5.99-.08,8.84.66,1.81.47,1.82.4,5.7-1.18.08-.62.17-1.35.26-2.07,0,0,0,0,0,0,.3-.33.61-.67.91-1,0-.27-.01-.53-.02-.8.33-.6.66-1.21.98-1.81.8-.19,1.59-.38,2.47-.6,0-1.4.1-2.56-.03-3.7-.1-.84-.9-1.04-1.63-1.16-1.08-2.6-1.88-5.25-1.74-8.11,2.87.47,5.46-.36,7.95-1.71Z"/>
  <path class="cls-1" d="m171.62,21.89c1.56.13,2.93-.14,3.62-1.8,1.79,0,3.58-.06,5.36.04,1.84.11,2.59.96,2.71,2.9.11,1.81.18,3.62-.93,5.22-1.13.05-1.72.65-1.77,1.79-1.19,0-2.38-.01-3.57-.02-.13-1.5-.88-2.35-2.41-2.65-4.12-.81-4.11-.85-3.06-5.05.04-.14.03-.29.04-.44,0,0,0,0,0,0Z"/>
  <path class="cls-1" d="m174.64,27.39c-4.12-.81-4.11-.85-3.06-5.05.04-.14.03-.29.04-.44-.11.04-.21.07-.32.11.04.67.07,1.34-.13,2-.18.58-.54,1-.99,1.29-.02.81-.03,1.62-.04,2.43,2.3.78,4.28,2.58,6.91,2.31-.13-1.5-.88-2.35-2.41-2.65Z"/>
  <path class="cls-1" d="m180.61,30.05c.05-1.14.63-1.74,1.77-1.79-.01,1.18-.57,1.8-1.77,1.79Z"/>
  <path class="cls-1" d="m154.58,42.77c-.21-.7-.29-1.48-.65-2.09-1.11-1.87-1.27-3.88-1.13-5.98,1.48.03,2.97.05,4.45.08.52,1.4,1.03,2.81,1.65,4.49-1.1,1.43-1.51,3.84-4.33,3.49Z"/>
  <path class="cls-1" d="m155.55,52.76c-.02.58-.06,1.15-.07,1.73-.03,1.23-.66,1.84-1.85,1.9,0-.44.13-.94-.02-1.32-1.01-2.51-.88-7.99.3-10.7.46.54,1.41,4.01,1.46,4.41.16,1.32.14,2.66.19,3.99Z"/>
  <path class="cls-1" d="m157.26,34.79c-1.48-.03-2.97-.05-4.45-.08-.03-.35-.05-.71-.08-1.06,2.69-.08,5.5.49,7.78-1.66.24-.23.83-.07,1.26-.09.03,1.07.23,2.2-.87,2.94-1.21-.01-2.43-.03-3.65-.04Z"/>
  <path class="cls-1" d="m166.39,73.7s0-.01-.01-.02c-.36-.6-.66-1.24-.99-1.86-1.19-.04-1.83.5-1.83,1.74.12.94.24,1.87.36,2.81.44-1.15,1.26-2.13,2.47-2.66Z"/>
  <path class="cls-1" d="m166.39,73.7c.6-.27,1.3-.42,2.1-.42,1.88,0,3.23.84,4.03,2.04-.12-.78-.43-1.48-1.16-2.05-.36-.28-.41-.97-.61-1.47-1.79,0-3.58.02-5.37.02.33.62.63,1.26.99,1.86,0,0,0,.01.01.02Z"/>
  <path class="cls-1" d="m170.76,71.8c.19.5.24,1.19.61,1.47.73.57,1.04,1.27,1.16,2.05.37.54.62,1.16.77,1.81.29.02.59.04.88.05.04-.32.08-.64.13-.95q.18-2.15,1.83-2.66s.12-.16.12-.16c-1.55-1.52-3.45-1.82-5.5-1.62Z"/>
  <path class="cls-1" d="m154.62,69.21c.14-.57.14-1.25.46-1.7.97-1.37,2.19-1.45,3.35-.23.39.41.53,1.05.78,1.59-.78.28-1.56.57-2.34.84-.84.28-1.63.29-2.25-.5Z"/>
  <path class="cls-1" d="m147.41,70.04c.42-.8,1.1-.95,1.91-.79-.61,1.57-.72,1.61-1.91.79Z"/>
  <path class="cls-1" d="m23.8,41.27c-.23-.89.01-1.55.92-1.86.39.97-.08,1.51-.92,1.86Z"/>
  <path class="cls-1" d="m242.56,60.82c-1.31.71-2.44,1.32-3.56,1.92,0,.43,0,.86,0,1.29,1.36.12,2.4.71,3.13,1.55.3.22.56.47.79.75.56-.11,1.08-.37,1.54-.98-.17-1.7-.43-3.36-1.91-4.53Z"/>
  <path class="cls-1" d="m219.48,65.61c-.16-1.14-.82-1.82-1.78-2.42-.85-.53-1.63-1.26-2.23-2.07-.8-1.07-.57-1.44,1.04-2.55,2.34,1.38,4.64,2.71,6.9,4.1.47.29.79.83,1.18,1.26-1.3,1.83-3.29,1.47-5.11,1.67Z"/>
  <path class="cls-1" d="m197.57,70.73c.22.54.31,1.23.7,1.58.87.79,1.9,1.41,2.85,2.11,1.7,1.25,3.47,2.24,5.71,1.93.56-.08,1.16.09,2.08.18-.17.93-.31,1.71-.45,2.5-4.65-.17-8.27-2.51-11.65-5.49-.96-.84-.83-1.79-.83-2.81.53,0,1.06,0,1.59,0Z"/>
  <path class="cls-1" d="m240.76,59.99c.06-1.25.72-1.82,1.95-1.74-.13,1.17-.56,2-1.95,1.74Z"/>
  <path class="cls-1" d="m133.01,35.57q-3.84.09-7.15-2.7c.16-.78.45-1.63.5-2.5.18-3.2,1.73-5.22,4.74-6.27,2.77-.96,5.2-.63,7.34,1.44v4.56c-1.37,1.09-2.53,2.18-2.93,3.93-.27,1.16-1.41,1.45-2.5,1.54Z"/>
  <path class="cls-1" d="m130.41,40.07c-.06-.51-.12-1.01-.18-1.52.63-.13,1.26-.26,1.9-.4.03,1.19-.53,1.83-1.71,1.91Z"/>
  <path class="cls-1" d="m206.68,21.02c-.02,1.63-.03,3.27-.05,5-1.63.52-3.02.97-4.41,1.41-.63-.36-1.35-.62-1.88-1.09-1.01-.9-1.58.03-2.31.41-2.38-1.06-4.44-2.41-4.77-5.64,2.18-2.41,5-3.26,8.26-2.58,1.89.39,3.61,1.31,5.16,2.49Z"/>
  <path class="cls-1" d="m238.96,39.13c-1.32-.07-2.26-.66-2.58-2.02-.61-2.61-1.27-5.21-1.01-7.93,0,0,.45,0,.45,0,0,0,.45,0,.45,0,.9,3.32,1.79,6.64,2.69,9.96Z"/>
  <path class="cls-1" d="m241.22,37.95c1.29.33,1.97,1.24,2.12,2.48.07.61-.24,1.26-.42,2.11q-2.06-2.15-1.69-4.58Z"/>
  <path class="cls-1" d="m236.27,29.17h-.45s-.45,0-.45,0c0-.91,0-1.81,0-2.72.3,0,.6,0,.9,0,0,.9,0,1.81,0,2.71Z"/>
  <path class="cls-1" d="m218.45,14.68c3.71-.92,7.38-1.95,11.26-1.88,2.22.04,4.41.14,6.5.97.76,3.84-1.97,6.08-4.14,8.97-4.76.72-9.11-.1-12.51-4.35-.95-1.19-1.23-2.33-1.12-3.72Z"/>
  <path class="cls-1" d="m161.77,31.89c-.43.02-1.02-.14-1.26.09-2.28,2.15-5.09,1.58-7.78,1.66-.52.23-1.06.45-1.56.71-1.12.58-2.25.48-2.5-.47-.43-1.63-1.3-2.8-2.47-3.98-1.21-1.22-.57-3.86,1.08-5.06.79-.57,1.86-.76,2.8-1.12,1.63.15,2.71-.33,2.8-2.23.02-.48.53-.93.82-1.39,1.78.01,3.57.02,5.35.03.89,1.16,1.78,2.32,2.67,3.49-.48,1.23-.91,2.32-1.34,3.41-.71.8-2.32-.17-2.57,1.4,1.02,1.43,2.5-.58,3.8.65.04.77.1,1.79.15,2.81h0Z"/>
  <path class="cls-1" d="m130.36,89.87c0,.32,0,.64,0,.97-.37-.22-.73-.43-1.1-.65.36-.1.73-.21,1.09-.31Z"/>
  <path class="cls-1" d="m161.77,31.89c-.05-1.02-.11-2.04-.15-2.81-1.31-1.23-2.78.78-3.8-.65.25-1.57,1.87-.6,2.57-1.4.43-1.09.85-2.18,1.34-3.41-.89-1.17-1.78-2.33-2.67-3.49.59-.3,1.19-.6,1.78-.9.58.32,1.16.65,1.73.98.18.56.3,1.16.56,1.68.76,1.48,1.25,2.86.63,4.65-.46,1.34-.2,2.95-.26,4.43-.58.31-1.15.62-1.73.93Z"/>
  <path class="cls-1" d="m228.19,33.71c.74.11,1.54.32,1.63,1.16.13,1.14.03,2.3.03,3.7-.88.21-1.68.4-2.47.6.27-1.82.54-3.64.81-5.45Z"/>
  <path class="cls-1" d="m226.42,41.77c-.3.33-.61.67-.91,1,.3-.33.61-.67.91-1Z"/>
  <path class="cls-1" d="m153.7,85.37c-.28-.03-.56-.03-.84-.09-.13-.03-.23-.16-.34-.24.21-.1.48-.33.62-.27.23.1.37.39.55.61,0,0,0,0,0,0Z"/>
  <path class="cls-1" d="m174.3,76.24c.67.41.66.73-.12.95.04-.32.08-.64.12-.95Z"/>
</svg>