<?xml version="1.0" encoding="UTF-8"?>
<svg id="Layer_1" data-name="Layer 1" xmlns="http://www.w3.org/2000/svg" viewBox="0 0 1366 768">
  <defs>
    <style>
      .cls-1 {
        fill: none;
        stroke: #fff;
        stroke-miterlimit: 10;
      }
    </style>
  </defs>
  <path class="cls-1" d="m38.83,39.45c-2.11,1.18-4.22,2.36-6.32,3.54-1.23.27-2.11,1.05-2.84,2.04-2.79,1.05-5.18,2.63-7.51,4.59-2.65,2.24-5.73,4.34-9.74,3.53-.75-1.46-.44-2.66.57-3.72,1.23-1.31,2.49-2.58,3.77-3.84.87-.86,1.59-1.79,1.69-3.08,1.47-.96,2.69-2.12,3.36-4.06-3.26-1.18-6.34-2.31-7.24-5.98.07-.91.14-1.81.21-2.72.63-1.44,1.27-2.89,1.9-4.33,0,0,.03-.03.03-.03.53-.22,1.13-.33,1.58-.66,3.5-2.57,7.26-4.36,11.7-4.28.99.27,2.04.42,2.97.84,1.94.89,2.62,2.25,2.08,4.37-.36,1.43-.82,2.94-1.65,4.11-1.19,1.66-1.52,3.47-1.74,5.38-1.84,1.78-3.84,3.28-6.3,4.12-.68.23-1.43.65-1.83,1.21-1.89,2.65-4.03,5.13-5.41,8.12-.14.19-.29.38-.43.56.28-.05.57-.09.85-.14,2.68-1.61,5.39-3.16,8.03-4.83,3.02-1.91,5.98-3.93,8.96-5.9.85-.42,1.7-.84,2.55-1.26,1.73-.09,2.62-1,2.67-2.75.6-.35,1.2-.69,1.8-1.03.61-.22,1.23-.45,1.84-.68,2.82-.74,5.44-2.44,8.96-1.87-.49.63-.71,1.17-1.12,1.42-1.14.69-2.35,1.26-3.53,1.88-1.06.52-2.15,1-3.17,1.58-.64.37-1.21.89-.83,1.98.55.23,1.21.55,1.9.76.99.3,2,.53,3,.78.31.22.61.45.92.67,2.05,2.08,2.67,4.24.48,6.67-.49.55-.61,1.35.19,2.26,1.53-.56,3.16-1.16,4.79-1.76l.96,2.51c-1.37-.1-2.62.16-3.63,1.18-4.79.98-9.62,1.08-14.45.84-.08-1.21.52-1.51,1.32-1.61.73-.09,1.46-.21,2.2-.27,2.77-.21,4.69-1.57,5.67-4.23,1.83-1.99,1.89-2.79.12-4.12-.54-.41-1.31-.5-1.98-.74-1.19-.33-2.37-.66-3.56-.99-1.25-1.14-2.51-1.13-3.8-.06Zm-15.65-2.33c1.93-1.92,3.8-3.62,5.48-5.51,1.18-1.32,2.11-2.87,3.1-4.35.83-1.24.88-2.55,0-3.79-.94-1.33-2.27-1.99-3.86-1.62-2.33.54-4.55,1.39-6.55,2.76-2.27,1.55-3.26,3.91-3.78,6.42-.35,1.68.3,3.3,1.9,4.24,1.13.66,2.35,1.18,3.7,1.85Z"/>
  <path class="cls-1" d="m421.6,270.15c-.21.11-.34.28-.41.51-.54.91-1.09,1.82-1.63,2.73-2.49,2.76-5,5.48-8.61,6.84-1.04.39-1.6,1.29-1.61,2.47-.61.73-1.21,1.45-1.82,2.17-1.43,1.31-2.74,2.78-4.3,3.91-4.2,3.06-8.3,6.33-13.35,7.97-.26-.3-.52-.61-.78-.92,2.73-1.72,5.5-3.37,8.16-5.18,1.56-1.06,2.96-2.37,4.44-3.56.73-.73,1.46-1.46,2.18-2.2.67-.69,1.79-1.02,1.89-2.43-1.55-.49-2.95.18-4.36.34-1.45-1.65-3.63-1.85-5.44-2.78-2.32-1.19-3.39-3.84-2.24-5.97.93-1.73,2.17-3.24,4.48-2.96.32.51.64,1.02.96,1.53-1.04.53-2.13.98-3.09,1.62-.8.54-1.04,1.49-.6,2.37.38.76.87,1.66,1.56,2.02,3.21,1.69,6.52,2.39,9.94.36-.14-.56-.24-.98-.35-1.4.59-.03,1.18-.06,1.77-.09,1.13.89,2.32.62,3.34-.08.97-.66,1.76-1.6,2.63-2.41,2.37-1.49,3.84-3.7,4.87-6.26.23-.12.37-.3.43-.56.53-1.05,1.08-2.09,1.59-3.15.63-1.32.45-2.6-.32-3.81.32-.29.64-.58.99-.9,1.41,1.03.91,2.74,1.53,4.02-.62,1.94-1.23,3.87-1.85,5.81Z"/>
  <path class="cls-1" d="m59.66,547.87c-.33,1.73-.65,3.47-.98,5.2-.56-.11-1.12-.21-1.68-.32-.28-.34-.56-.68-.93-1.12-.54.25-1.09.44-1.58.73-3.36,1.91-6.48,4.15-9.4,6.68-2.42,1.18-4.84,2.37-7.26,3.55-1.69.38-3.58-.46-5.12.82-4.79,1.64-9.45,1-13.98-.99-1.69-.74-3.02-1.92-3.55-3.97.48-.1,1.01-.38,1.22-.23,3.15,2.36,6.98,2.48,10.6,3.28.24.05.55-.19.83-.3.66-.12,1.32-.24,1.99-.35.23-.06.44-.17.63-.31.57.12,1.18.43,1.7.32,1.88-.38,3.72-.89,5.58-1.35,3.38-1.36,6.68-2.87,9.36-5.42,1.36-.87,2.74-1.71,4.08-2.62.91-.62.78-1.46.28-2.31.03-.47.06-.94.09-1.41,2.18-1.02,4.48-1.33,6.87-1.22.42.45.85.89,1.27,1.34Zm-3.27,1.7h.28s-.12-.22-.12-.22l-.16.22Z"/>
  <path class="cls-1" d="m53.31,50.62c1.01-1.01,2.26-1.28,3.63-1.17,1.13-.07,2.07-.58,2.42-1.64.99-3.05,2.9-5.46,5-7.76,2.21-.42,4.42-.67,6.69.25,1.22,1.87,1.56,3.86.21,5.84-1.4,2.07-3.48,2.66-5.85,2.39-.44-.05-.9-.3-1.3-.22-.71.14-1.47.36-1.55,1.59.47.36,1.04.79,1.6,1.23-.39.99-1.11,1.31-2.11,1.08-.14-.03-.29-.1-.39-.2-1.97-1.76-3.86-1.7-5.94-.04-1.05.84-1.58.44-2.41-1.33Z"/>
  <path class="cls-1" d="m389.09,295.82c.26.31.52.61.78.92-.55.44-1.04.99-1.65,1.3-1.04.52-2.15.87-3.24,1.3-1.4-.35-2.42.53-3.53,1.13-2.24.4-4.49.8-6.73,1.2-1.34.14-2.67.25-4.01.42-2.84.35-5.65.52-8.37-.67-.14-.06-.45.26-.93.56.39.42.69.99,1.14,1.17,1.1.42,2.25.71,3.41.96,1.35.29,2.65.6,3.13,2.15-.7.08-1.4.16-2.1.25-.96-.83-2.05-.83-3.19-.51-.34-.08-.67-.16-1.01-.24-1.18-.64-2.36-1.29-3.55-1.93-.24-.5-.48-1.01-.72-1.51,1.21-2.6,3.38-4.26,5.63-5.84,1.13-.98,2.22-2,3.39-2.91.88-.69,1.61-1.79,3.01-1.48q-.48,1.81-3.91,5.02c-.94.62-2.21.88-2.47,2.26q1.94,1.19,4.37.9c3.55-.05,6.97-.84,10.32-1.93,2.04.31,3.74-.71,5.5-1.46.91-.29,1.8-.63,2.73-.85.64-.15,1.32-.14,1.98-.2Z"/>
  <path class="cls-1" d="m64.35,40.04c-2.1,2.3-4,4.72-5,7.76-.35,1.07-1.29,1.57-2.42,1.64-.32-.84-.64-1.67-.96-2.51.78-1.42,1.42-2.95,2.38-4.23,1.29-1.72,2.01-3.59,2.27-5.68.57-3.56,2.01-6.98,1.74-10.68,1.14-.06,2.28-.12,3.41-.18.01,1.5.03,3,.04,4.5-.76,2.36-1.55,4.71-2.25,7.09-.09.31.3.77.47,1.16.1.37.2.75.31,1.12Z"/>
  <path class="cls-1" d="m35.51,38.31c-2.98,1.97-5.94,3.99-8.96,5.9-2.64,1.67-5.35,3.22-8.03,4.83-.14-.15-.28-.29-.43-.43,1.38-3,3.52-5.48,5.41-8.12.4-.56,1.16-.98,1.83-1.21,2.46-.84,4.46-2.35,6.3-4.12,1.38.94,2.96,1.63,3.87,3.15Z"/>
  <path class="cls-1" d="m64.35,40.04c-.1-.37-.2-.75-.31-1.12,1.21-.37,2.42-.73,3.64-1.1,1.47.09,2.94.19,4.41.28.58.34,1.16.68,1.74,1.02.29.23.57.46.86.69.38,2.75.33,5.44-.98,7.98-2.12,1.18-4.27,2.34-6.6,3.03-.93.28-1.96.22-2.95.31-.57-.44-1.14-.87-1.6-1.23.08-1.23.84-1.45,1.55-1.59.4-.08.86.17,1.3.22,2.38.28,4.46-.32,5.85-2.39,1.34-1.99,1.01-3.97-.21-5.84-2.28-.92-4.48-.68-6.69-.25Z"/>
  <path class="cls-1" d="m60.63,37.03c-.27,2.09-.98,3.96-2.27,5.68-.96,1.28-1.6,2.81-2.38,4.23-1.63.6-3.26,1.2-4.79,1.76-.8-.9-.68-1.71-.19-2.26,2.19-2.43,1.58-4.58-.48-6.67,1.98-.3,3.73.3,5.13,1.49,2.05-.7,1.8-2.76,2.81-4.05.74-.06,1.46-.13,2.18-.19Z"/>
  <path class="cls-1" d="m29.98,20.46c-4.44-.08-8.21,1.7-11.7,4.28-.45.33-1.05.44-1.58.66-.04-.44-.19-.91-.1-1.32.36-1.57.8-3.11,1.28-4.91,3.02-.39,6.02-.85,9.04-1.15,1.67-.16,2.82.64,3.07,2.44Z"/>
  <path class="cls-1" d="m57,552.76c.56.11,1.12.21,1.68.32.07,1.27.14,2.55.21,3.82-1.3,1.67-1.45,3.64-1.46,5.65-1.06,2.63-1.37,5.34-.89,8.14-.45.34-.9.68-1.35,1.02-.64-2.66-1.3-5.24-.36-8.05.4-1.21-.31-2.78-.52-4.19.96-.8,1.18-1.9,1.43-3.07.26-1.24.83-2.42,1.26-3.63Z"/>
  <path class="cls-1" d="m57,552.76c-.43,1.21-1,2.39-1.26,3.63-.25,1.16-.46,2.27-1.43,3.07-.96-1.1-2.07-1.62-3.55-1.04-1.23.48-2.5.89-3.75,1.34-.85.3-1.4-.16-1.93-.71,2.92-2.53,6.04-4.77,9.4-6.68.49-.28,1.04-.48,1.58-.73.37.45.65.79.93,1.12Z"/>
  <path class="cls-1" d="m369.1,306.25c-.48-1.55-1.78-1.86-3.13-2.15-1.15-.25-2.31-.53-3.41-.96-.45-.17-.75-.75-1.14-1.17.48-.3.79-.62.93-.56,2.72,1.19,5.53,1.03,8.37.67,1.33-.17,2.67-.28,4.01-.42.55,1.59,1.31,3.21-.47,4.56-.66.04-1.31.08-1.97.12,0,0,.05.02.05.02-1.43-1.24-1.56-1.25-3.29-.12h.05Z"/>
  <path class="cls-1" d="m51.52,547.75c-.03.47-.06.94-.09,1.41-1.73.02-3.46.03-5.19.07-1.14.03-2.28.11-3.43.17-1.29-.75-2.64-1.43-3.86-2.28-.59-.41-1.02-1.2-.48-1.95.48-.67,1.19-.91,1.96-.43,2.64,1.64,5.64,2.03,8.63,2.35.89.09,1.8-.18,2.45.66Z"/>
  <path class="cls-1" d="m14.57,32.48c.89,3.67,3.98,4.8,7.24,5.98-.67,1.94-1.89,3.1-3.36,4.06-1.32-2.1-2.64-4.19-4.48-5.92-.57-.53-.83-1.54-.96-2.37-.17-1.07.57-1.59,1.57-1.75Z"/>
  <path class="cls-1" d="m42.81,549.4c1.14-.06,2.28-.14,3.43-.17,1.73-.04,3.46-.05,5.19-.07.5.84.63,1.68-.28,2.31-1.33.91-2.71,1.75-4.08,2.62-.76-.83-1.52-1.67-2.28-2.5-.66-.73-1.32-1.45-1.98-2.18Z"/>
  <path class="cls-1" d="m408.39,277.49c-.59.03-1.18.06-1.77.09-1.85-2.63-4.43-4.14-7.46-4.97-.32-.51-.64-1.02-.96-1.53,3.3-1.21,5.73.38,7.8,2.65.98,1.08,1.6,2.49,2.39,3.75Z"/>
  <path class="cls-1" d="m364.16,296.46c-2.25,1.58-4.42,3.24-5.63,5.84-1.81-.68-2.3-1.27-1.59-2.23,1.12-1.5,2.29-3.04,3.74-4.17,1-.78,2.5-.78,3.47.56Z"/>
  <path class="cls-1" d="m67.68,37.83c-1.21.37-2.42.73-3.64,1.1-.17-.39-.56-.84-.47-1.16.7-2.38,1.49-4.73,2.25-7.09.95.11,2.07.55,1.64,1.55-.86,1.99-.25,3.75.21,5.6Z"/>
  <path class="cls-1" d="m73.71,47.78c1.32-2.54,1.36-5.23.98-7.98,1.68-.1,2.75.86,3.4,2.25.28.6.43,1.73.1,2.06-1.37,1.35-2.11,3.56-4.48,3.67Z"/>
  <path class="cls-1" d="m420.92,249.73c.3.42.6.83.9,1.25.39.79.78,1.57,1.17,2.36.11,1.47.26,2.95.29,4.42,0,.34-.42.69-.77,1.2-1.46-1.22-1.82-2.75-1.73-4.37.07-1.26-.21-2.35-.9-3.37.34-.5.69-1,1.03-1.49Z"/>
  <path class="cls-1" d="m49.59,39.12c-1-.26-2.02-.48-3-.78-.69-.21-1.35-.54-1.9-.76-.38-1.09.18-1.62.83-1.98,1.03-.58,2.11-1.06,3.17-1.58.21,1.72,1.38,3.26.91,5.1Z"/>
  <path class="cls-1" d="m65.78,26.17c-1.14.06-2.28.12-3.41.18-.13-1.75.87-2.79,2.24-3.54,1.2-.65,2.78.3,2.9,1.79.1,1.19-.8,1.44-1.73,1.57Z"/>
  <path class="cls-1" d="m419.23,268.74c-1.03,2.56-2.5,4.77-4.87,6.26-.78-1.34-.81-2.62.49-3.61,1.36-1.04,2.16-3.06,4.38-2.65Z"/>
  <path class="cls-1" d="m401.41,282.78c1.41-.16,2.8-.83,4.36-.34-.1,1.4-1.22,1.74-1.89,2.43-.72.74-1.45,1.47-2.18,2.2-.97-1.37-1.45-2.78-.28-4.29Z"/>
  <path class="cls-1" d="m420.93,261.22c.77,1.21.95,2.49.32,3.81-.51,1.06-1.06,2.1-1.59,3.15-1.65-2.71-.96-4.98,1.27-6.96Z"/>
  <path class="cls-1" d="m37.72,559.5c-1.86.46-3.7.98-5.58,1.35-.52.1-1.13-.2-1.7-.32.82-.61,1.61-1.26,2.47-1.81,2.21-1.42,2.52-1.36,4.81.78Z"/>
  <path class="cls-1" d="m384.39,296.87c-1.77.74-3.46,1.77-5.5,1.46-.03-1.84,1.38-2.39,2.7-2.83,1.24-.41,2.17.28,2.8,1.37Z"/>
  <path class="cls-1" d="m16.67,25.43c-.63,1.44-1.27,2.89-1.9,4.33-1.69-.71-2.12-1.33-1.52-2.29.79-1.26,1.7-2.35,3.42-2.04Z"/>
  <path class="cls-1" d="m368.56,300.25q-2.43.28-4.37-.9c.26-1.38,1.52-1.64,2.47-2.26.64,1.05,1.27,2.11,1.91,3.16Z"/>
  <path class="cls-1" d="m32.71,563.41c1.54-1.28,3.43-.44,5.12-.82.19,1.04-.24,1.81-1.23,2.07-1.14.29-2.38.67-3.32-.54-.18-.24-.37-.47-.56-.71Z"/>
  <path class="cls-1" d="m46.19,40.5c.67.24,1.44.33,1.98.74,1.77,1.34,1.71,2.13-.12,4.12-.66-1.6-1.92-2.98-1.86-4.87Z"/>
  <path class="cls-1" d="m57.43,562.54c0-2.01.16-3.97,1.46-5.65,1.24,1.18,1.5,2.5.42,3.87-.53.67-1.25,1.19-1.88,1.78Z"/>
  <path class="cls-1" d="m421.6,270.15c.62-1.93,1.23-3.87,1.85-5.81.25.34.57.66.74,1.04.82,1.88.7,2.52-.76,3.69-.55.44-1.22.72-1.83,1.07Z"/>
  <path class="cls-1" d="m359.25,303.81c1.18.64,2.36,1.29,3.55,1.93-.12.09-.22.2-.35.27-2.5,1.29-3.17.83-3.19-2.2Z"/>
  <path class="cls-1" d="m38.83,39.45c1.28-1.07,2.55-1.08,3.8.06-1.65,1.48-2.2,1.47-3.8-.06Z"/>
  <path class="cls-1" d="m381.46,300.46c1.1-.6,2.12-1.48,3.53-1.13-.99,2.5-1.69,2.73-3.53,1.13Z"/>
  <path class="cls-1" d="m40.73,34.3c-.05,1.75-.93,2.67-2.67,2.75q.21-2.5,2.67-2.75Z"/>
  <path class="cls-1" d="m419.56,273.38c.54-.91,1.09-1.82,1.63-2.73.14.25.32.48.41.75.61,1.94.2,2.33-2.04,1.98Z"/>
  <path class="cls-1" d="m407.52,284.86c.61-.72,1.22-1.45,1.82-2.17.52.74,1.1,1.53.19,2.34-.66.58-1.37.29-2.01-.16Z"/>
  <path class="cls-1" d="m422.99,253.33c-.39-.79-.78-1.57-1.17-2.36.8-.37,1.65-.6,2.14.38.49.98-.22,1.52-.96,1.98Z"/>
  <path class="cls-1" d="m420.92,249.73c-.34.5-.69,1-1.03,1.49-.16-.25-.41-.48-.46-.76-.11-.53-.34-1.38-.11-1.56.9-.7,1.19.28,1.61.83Z"/>
  <path class="cls-1" d="m29.67,45.03c.73-.99,1.61-1.77,2.84-2.04q-.34,2.08-2.84,2.04Z"/>
  <path class="cls-1" d="m369.06,306.25c1.73-1.13,1.86-1.13,3.29.12-1.13.96-2.21.45-3.29-.12Z"/>
  <path class="cls-1" d="m363.81,305.98c1.14-.32,2.23-.33,3.19.51q-2,1-3.19-.51Z"/>
  <path class="cls-1" d="m372.29,306.35c.66-.04,1.31-.08,1.97-.12.11.38.21.75.32,1.13-.37.03-.81.19-1.09.04-.46-.24-.81-.69-1.21-1.04Z"/>
  <path class="cls-1" d="m44.37,32.59c-.61.23-1.23.45-1.84.68.5-1.66.69-1.73,1.84-.68Z"/>
  <path class="cls-1" d="m73.83,39.12c-.58-.34-1.16-.68-1.74-1.02.31-.54.81-1.03,1.33-.57.34.3.29,1.04.41,1.59Z"/>
  <path class="cls-1" d="m29.81,560.85c-.66.12-1.32.23-1.99.35.43-1.49.63-1.53,1.99-.35Z"/>
  <path class="cls-1" d="m59.66,547.87c-.42-.45-.85-.89-1.27-1.34.53-.05,1.06-.1,1.59-.14-.11.49-.21.99-.32,1.48Z"/>
  <path class="cls-1" d="m23.18,37.12c-1.35-.67-2.56-1.19-3.7-1.85-1.6-.93-2.25-2.56-1.9-4.24.52-2.51,1.51-4.87,3.78-6.42,2-1.37,4.22-2.22,6.55-2.76,1.6-.37,2.92.29,3.86,1.62.88,1.24.82,2.55,0,3.79-.99,1.48-1.93,3.03-3.1,4.35-1.68,1.88-3.55,3.59-5.48,5.51Z"/>
  <path class="cls-1" d="m18.52,49.04c-.28.05-.57.09-.85.14.14-.19.29-.37.43-.56.14.14.29.28.42.43Z"/>
  <path class="cls-1" d="m399.16,272.61c3.03.83,5.61,2.34,7.46,4.97.1.42.21.84.35,1.4-3.41,2.03-6.72,1.33-9.94-.36-.69-.36-1.18-1.27-1.56-2.02-.44-.87-.19-1.83.6-2.37.96-.65,2.06-1.09,3.09-1.62Z"/>
  <polygon class="cls-1" points="56.39 549.57 56.55 549.35 56.67 549.56 56.39 549.57"/>
</svg>
